<mxfile host="app.diagrams.net" agent="Mozilla/5.0 (Macintosh; Intel Mac OS X 10_15_7) AppleWebKit/605.1.15 (KHTML, like Gecko) Version/18.1 Safari/605.1.15" version="24.8.9">
  <diagram name="Страница — 1" id="G_YpSyLOIAkAhcY-WaBu">
    <mxGraphModel dx="1514" dy="926" grid="1" gridSize="10" guides="1" tooltips="1" connect="1" arrows="1" fold="1" page="1" pageScale="1" pageWidth="827" pageHeight="1169" math="0" shadow="0">
      <root>
        <mxCell id="0" />
        <mxCell id="1" parent="0" />
        <mxCell id="Dd6yMsaWtMQvo8j3xC_B-7" value="Вход в систему" style="edgeStyle=orthogonalEdgeStyle;rounded=0;orthogonalLoop=1;jettySize=auto;html=1;curved=0;" edge="1" parent="1" source="Dd6yMsaWtMQvo8j3xC_B-1">
          <mxGeometry relative="1" as="geometry">
            <mxPoint x="109.44736842105272" y="223" as="sourcePoint" />
            <mxPoint x="209.50000000000023" y="223" as="targetPoint" />
            <Array as="points">
              <mxPoint x="125" y="223" />
              <mxPoint x="125" y="224" />
              <mxPoint x="209" y="224" />
            </Array>
          </mxGeometry>
        </mxCell>
        <mxCell id="Dd6yMsaWtMQvo8j3xC_B-26" value="Добаваления товара" style="edgeStyle=orthogonalEdgeStyle;rounded=0;orthogonalLoop=1;jettySize=auto;html=1;curved=0;" edge="1" parent="1">
          <mxGeometry relative="1" as="geometry">
            <mxPoint x="29.630434782608745" y="375.9999999999999" as="sourcePoint" />
            <mxPoint x="209.5" y="375.9999999999999" as="targetPoint" />
          </mxGeometry>
        </mxCell>
        <mxCell id="Dd6yMsaWtMQvo8j3xC_B-32" value="online оплата" style="edgeStyle=orthogonalEdgeStyle;rounded=0;orthogonalLoop=1;jettySize=auto;html=1;curved=0;" edge="1" parent="1">
          <mxGeometry relative="1" as="geometry">
            <mxPoint x="29.630434782608745" y="543.9999999999999" as="sourcePoint" />
            <mxPoint x="209.5" y="543.9999999999999" as="targetPoint" />
          </mxGeometry>
        </mxCell>
        <mxCell id="Dd6yMsaWtMQvo8j3xC_B-1" value="" style="shape=umlLifeline;perimeter=lifelinePerimeter;whiteSpace=wrap;html=1;container=1;dropTarget=0;collapsible=0;recursiveResize=0;outlineConnect=0;portConstraint=eastwest;newEdgeStyle={&quot;curved&quot;:0,&quot;rounded&quot;:0};participant=umlActor;" vertex="1" parent="1">
          <mxGeometry x="20" y="130" width="20" height="1030" as="geometry" />
        </mxCell>
        <mxCell id="Dd6yMsaWtMQvo8j3xC_B-54" value="" style="html=1;points=[[0,0,0,0,5],[0,1,0,0,-5],[1,0,0,0,5],[1,1,0,0,-5]];perimeter=orthogonalPerimeter;outlineConnect=0;targetShapes=umlLifeline;portConstraint=eastwest;newEdgeStyle={&quot;curved&quot;:0,&quot;rounded&quot;:0};" vertex="1" parent="Dd6yMsaWtMQvo8j3xC_B-1">
          <mxGeometry x="5" y="90" width="10" height="80" as="geometry" />
        </mxCell>
        <mxCell id="Dd6yMsaWtMQvo8j3xC_B-9" style="edgeStyle=orthogonalEdgeStyle;rounded=0;orthogonalLoop=1;jettySize=auto;html=1;curved=0;dashed=1;" edge="1" parent="1">
          <mxGeometry relative="1" as="geometry">
            <mxPoint x="209.50000000000023" y="299" as="sourcePoint" />
            <mxPoint x="29.630434782608745" y="300.0434782608696" as="targetPoint" />
            <Array as="points">
              <mxPoint x="209" y="300" />
            </Array>
          </mxGeometry>
        </mxCell>
        <mxCell id="Dd6yMsaWtMQvo8j3xC_B-17" value="Авторизирован" style="edgeLabel;html=1;align=center;verticalAlign=middle;resizable=0;points=[];" vertex="1" connectable="0" parent="Dd6yMsaWtMQvo8j3xC_B-9">
          <mxGeometry x="0.0494" relative="1" as="geometry">
            <mxPoint as="offset" />
          </mxGeometry>
        </mxCell>
        <mxCell id="Dd6yMsaWtMQvo8j3xC_B-24" value="Проверка на налич." style="edgeStyle=orthogonalEdgeStyle;rounded=0;orthogonalLoop=1;jettySize=auto;html=1;curved=0;" edge="1" parent="1">
          <mxGeometry relative="1" as="geometry">
            <mxPoint x="209.63043478260875" y="384.9999999999999" as="sourcePoint" />
            <mxPoint x="413.5" y="384.9999999999999" as="targetPoint" />
          </mxGeometry>
        </mxCell>
        <mxCell id="Dd6yMsaWtMQvo8j3xC_B-28" value="Товар добавлен" style="edgeStyle=orthogonalEdgeStyle;rounded=0;orthogonalLoop=1;jettySize=auto;html=1;curved=0;dashed=1;" edge="1" parent="1">
          <mxGeometry relative="1" as="geometry">
            <mxPoint x="209.5" y="435.9999999999999" as="sourcePoint" />
            <mxPoint x="29.630434782608745" y="435.9999999999999" as="targetPoint" />
          </mxGeometry>
        </mxCell>
        <mxCell id="Dd6yMsaWtMQvo8j3xC_B-33" value="Оплата" style="edgeStyle=orthogonalEdgeStyle;rounded=0;orthogonalLoop=1;jettySize=auto;html=1;curved=0;dashed=1;" edge="1" parent="1" target="Dd6yMsaWtMQvo8j3xC_B-3">
          <mxGeometry relative="1" as="geometry">
            <mxPoint x="209.63043478260875" y="710" as="sourcePoint" />
            <mxPoint x="500" y="710" as="targetPoint" />
            <Array as="points">
              <mxPoint x="210" y="711" />
            </Array>
          </mxGeometry>
        </mxCell>
        <mxCell id="Dd6yMsaWtMQvo8j3xC_B-34" value="Форма для заполнения" style="edgeStyle=orthogonalEdgeStyle;rounded=0;orthogonalLoop=1;jettySize=auto;html=1;curved=0;dashed=1;" edge="1" parent="1">
          <mxGeometry relative="1" as="geometry">
            <mxPoint x="209.5" y="589.9999999999999" as="sourcePoint" />
            <mxPoint x="29.630434782608745" y="589.9999999999999" as="targetPoint" />
          </mxGeometry>
        </mxCell>
        <mxCell id="Dd6yMsaWtMQvo8j3xC_B-2" value="Система" style="shape=umlLifeline;perimeter=lifelinePerimeter;whiteSpace=wrap;html=1;container=1;dropTarget=0;collapsible=0;recursiveResize=0;outlineConnect=0;portConstraint=eastwest;newEdgeStyle={&quot;curved&quot;:0,&quot;rounded&quot;:0};" vertex="1" parent="1">
          <mxGeometry x="160" y="130" width="100" height="1030" as="geometry" />
        </mxCell>
        <mxCell id="Dd6yMsaWtMQvo8j3xC_B-15" value="" style="html=1;points=[[0,0,0,0,5],[0,1,0,0,-5],[1,0,0,0,5],[1,1,0,0,-5]];perimeter=orthogonalPerimeter;outlineConnect=0;targetShapes=umlLifeline;portConstraint=eastwest;newEdgeStyle={&quot;curved&quot;:0,&quot;rounded&quot;:0};" vertex="1" parent="Dd6yMsaWtMQvo8j3xC_B-2">
          <mxGeometry x="45" y="130" width="10" height="40" as="geometry" />
        </mxCell>
        <mxCell id="Dd6yMsaWtMQvo8j3xC_B-16" value="Валидация" style="html=1;align=left;spacingLeft=2;endArrow=block;rounded=0;edgeStyle=orthogonalEdgeStyle;curved=0;rounded=0;" edge="1" target="Dd6yMsaWtMQvo8j3xC_B-15" parent="Dd6yMsaWtMQvo8j3xC_B-2">
          <mxGeometry relative="1" as="geometry">
            <mxPoint x="50" y="110" as="sourcePoint" />
            <Array as="points">
              <mxPoint x="80" y="140" />
            </Array>
          </mxGeometry>
        </mxCell>
        <mxCell id="Dd6yMsaWtMQvo8j3xC_B-38" value="" style="html=1;points=[[0,0,0,0,5],[0,1,0,0,-5],[1,0,0,0,5],[1,1,0,0,-5]];perimeter=orthogonalPerimeter;outlineConnect=0;targetShapes=umlLifeline;portConstraint=eastwest;newEdgeStyle={&quot;curved&quot;:0,&quot;rounded&quot;:0};" vertex="1" parent="Dd6yMsaWtMQvo8j3xC_B-2">
          <mxGeometry x="45" y="520" width="10" height="40" as="geometry" />
        </mxCell>
        <mxCell id="Dd6yMsaWtMQvo8j3xC_B-39" value="Валидация" style="html=1;align=left;spacingLeft=2;endArrow=block;rounded=0;edgeStyle=orthogonalEdgeStyle;curved=0;rounded=0;" edge="1" target="Dd6yMsaWtMQvo8j3xC_B-38" parent="Dd6yMsaWtMQvo8j3xC_B-2">
          <mxGeometry relative="1" as="geometry">
            <mxPoint x="50" y="500" as="sourcePoint" />
            <Array as="points">
              <mxPoint x="80" y="530" />
            </Array>
          </mxGeometry>
        </mxCell>
        <mxCell id="Dd6yMsaWtMQvo8j3xC_B-3" value="Платежный шлюз" style="shape=umlLifeline;perimeter=lifelinePerimeter;whiteSpace=wrap;html=1;container=1;dropTarget=0;collapsible=0;recursiveResize=0;outlineConnect=0;portConstraint=eastwest;newEdgeStyle={&quot;curved&quot;:0,&quot;rounded&quot;:0};" vertex="1" parent="1">
          <mxGeometry x="530" y="130" width="100" height="1030" as="geometry" />
        </mxCell>
        <mxCell id="Dd6yMsaWtMQvo8j3xC_B-41" value="" style="html=1;points=[[0,0,0,0,5],[0,1,0,0,-5],[1,0,0,0,5],[1,1,0,0,-5]];perimeter=orthogonalPerimeter;outlineConnect=0;targetShapes=umlLifeline;portConstraint=eastwest;newEdgeStyle={&quot;curved&quot;:0,&quot;rounded&quot;:0};" vertex="1" parent="Dd6yMsaWtMQvo8j3xC_B-3">
          <mxGeometry x="45" y="610" width="10" height="40" as="geometry" />
        </mxCell>
        <mxCell id="Dd6yMsaWtMQvo8j3xC_B-42" value="Валидация" style="html=1;align=left;spacingLeft=2;endArrow=block;rounded=0;edgeStyle=orthogonalEdgeStyle;curved=0;rounded=0;" edge="1" target="Dd6yMsaWtMQvo8j3xC_B-41" parent="Dd6yMsaWtMQvo8j3xC_B-3">
          <mxGeometry x="0.0084" relative="1" as="geometry">
            <mxPoint x="50" y="590" as="sourcePoint" />
            <Array as="points">
              <mxPoint x="80" y="620" />
            </Array>
            <mxPoint as="offset" />
          </mxGeometry>
        </mxCell>
        <mxCell id="Dd6yMsaWtMQvo8j3xC_B-45" value="" style="html=1;points=[[0,0,0,0,5],[0,1,0,0,-5],[1,0,0,0,5],[1,1,0,0,-5]];perimeter=orthogonalPerimeter;outlineConnect=0;targetShapes=umlLifeline;portConstraint=eastwest;newEdgeStyle={&quot;curved&quot;:0,&quot;rounded&quot;:0};" vertex="1" parent="Dd6yMsaWtMQvo8j3xC_B-3">
          <mxGeometry x="46" y="690" width="10" height="40" as="geometry" />
        </mxCell>
        <mxCell id="Dd6yMsaWtMQvo8j3xC_B-46" value="Формирования платежа" style="html=1;align=left;spacingLeft=2;endArrow=block;rounded=0;edgeStyle=orthogonalEdgeStyle;curved=0;rounded=0;" edge="1" target="Dd6yMsaWtMQvo8j3xC_B-45" parent="Dd6yMsaWtMQvo8j3xC_B-3">
          <mxGeometry relative="1" as="geometry">
            <mxPoint x="51" y="670" as="sourcePoint" />
            <Array as="points">
              <mxPoint x="81" y="700" />
            </Array>
          </mxGeometry>
        </mxCell>
        <mxCell id="Dd6yMsaWtMQvo8j3xC_B-27" value="Товар в наличии" style="edgeStyle=orthogonalEdgeStyle;rounded=0;orthogonalLoop=1;jettySize=auto;html=1;curved=0;dashed=1;" edge="1" parent="1">
          <mxGeometry relative="1" as="geometry">
            <mxPoint x="413.5" y="405.9999999999999" as="sourcePoint" />
            <mxPoint x="209.63043478260875" y="405.9999999999999" as="targetPoint" />
          </mxGeometry>
        </mxCell>
        <mxCell id="Dd6yMsaWtMQvo8j3xC_B-4" value="Склад" style="shape=umlLifeline;perimeter=lifelinePerimeter;whiteSpace=wrap;html=1;container=1;dropTarget=0;collapsible=0;recursiveResize=0;outlineConnect=0;portConstraint=eastwest;newEdgeStyle={&quot;curved&quot;:0,&quot;rounded&quot;:0};" vertex="1" parent="1">
          <mxGeometry x="364" y="130" width="100" height="1030" as="geometry" />
        </mxCell>
        <mxCell id="Dd6yMsaWtMQvo8j3xC_B-25" value="alt" style="shape=umlFrame;whiteSpace=wrap;html=1;pointerEvents=0;" vertex="1" parent="1">
          <mxGeometry x="10" y="320" width="430" height="200" as="geometry" />
        </mxCell>
        <mxCell id="Dd6yMsaWtMQvo8j3xC_B-29" value="Товар отсутствует" style="edgeStyle=orthogonalEdgeStyle;rounded=0;orthogonalLoop=1;jettySize=auto;html=1;curved=0;dashed=1;" edge="1" parent="1">
          <mxGeometry relative="1" as="geometry">
            <mxPoint x="413.87" y="453.9999999999999" as="sourcePoint" />
            <mxPoint x="210.00043478260875" y="453.9999999999999" as="targetPoint" />
          </mxGeometry>
        </mxCell>
        <mxCell id="Dd6yMsaWtMQvo8j3xC_B-30" value="Товар не добавлен" style="edgeStyle=orthogonalEdgeStyle;rounded=0;orthogonalLoop=1;jettySize=auto;html=1;curved=0;dashed=1;" edge="1" parent="1">
          <mxGeometry relative="1" as="geometry">
            <mxPoint x="209.87" y="474.9999999999999" as="sourcePoint" />
            <mxPoint x="30.000434782608743" y="474.9999999999999" as="targetPoint" />
          </mxGeometry>
        </mxCell>
        <mxCell id="Dd6yMsaWtMQvo8j3xC_B-31" value="" style="endArrow=none;dashed=1;html=1;rounded=0;exitX=0.002;exitY=0.502;exitDx=0;exitDy=0;exitPerimeter=0;entryX=1.003;entryY=0.502;entryDx=0;entryDy=0;entryPerimeter=0;" edge="1" parent="1" source="Dd6yMsaWtMQvo8j3xC_B-25" target="Dd6yMsaWtMQvo8j3xC_B-25">
          <mxGeometry width="50" height="50" relative="1" as="geometry">
            <mxPoint x="230" y="390" as="sourcePoint" />
            <mxPoint x="280" y="340" as="targetPoint" />
          </mxGeometry>
        </mxCell>
        <mxCell id="Dd6yMsaWtMQvo8j3xC_B-35" value="Отправка формы" style="edgeStyle=orthogonalEdgeStyle;rounded=0;orthogonalLoop=1;jettySize=auto;html=1;curved=0;" edge="1" parent="1">
          <mxGeometry relative="1" as="geometry">
            <mxPoint x="30.000434782608743" y="619.9999999999999" as="sourcePoint" />
            <mxPoint x="209.87" y="619.9999999999999" as="targetPoint" />
          </mxGeometry>
        </mxCell>
        <mxCell id="Dd6yMsaWtMQvo8j3xC_B-47" value="Деньги списали" style="edgeStyle=orthogonalEdgeStyle;rounded=0;orthogonalLoop=1;jettySize=auto;html=1;curved=0;dashed=1;" edge="1" parent="1" target="Dd6yMsaWtMQvo8j3xC_B-2">
          <mxGeometry x="0.0005" relative="1" as="geometry">
            <mxPoint x="579.87" y="879.9999999999999" as="sourcePoint" />
            <mxPoint x="400.00043478260875" y="879.9999999999999" as="targetPoint" />
            <Array as="points">
              <mxPoint x="320" y="880" />
              <mxPoint x="320" y="880" />
            </Array>
            <mxPoint as="offset" />
          </mxGeometry>
        </mxCell>
        <mxCell id="Dd6yMsaWtMQvo8j3xC_B-49" value="Платеж успешно прошел" style="edgeStyle=orthogonalEdgeStyle;rounded=0;orthogonalLoop=1;jettySize=auto;html=1;curved=0;dashed=1;" edge="1" parent="1">
          <mxGeometry x="-0.0051" relative="1" as="geometry">
            <mxPoint x="209.87" y="899.9999999999999" as="sourcePoint" />
            <mxPoint x="30.000434782608743" y="899.9999999999999" as="targetPoint" />
            <mxPoint as="offset" />
          </mxGeometry>
        </mxCell>
        <mxCell id="Dd6yMsaWtMQvo8j3xC_B-50" value="loop=5" style="shape=umlFrame;whiteSpace=wrap;html=1;pointerEvents=0;" vertex="1" parent="1">
          <mxGeometry x="510" y="780" width="250" height="90" as="geometry" />
        </mxCell>
        <mxCell id="Dd6yMsaWtMQvo8j3xC_B-51" value="alt" style="shape=umlFrame;whiteSpace=wrap;html=1;pointerEvents=0;" vertex="1" parent="1">
          <mxGeometry x="20" y="700" width="766" height="300" as="geometry" />
        </mxCell>
        <mxCell id="Dd6yMsaWtMQvo8j3xC_B-52" value="Деньги не списали" style="edgeStyle=orthogonalEdgeStyle;rounded=0;orthogonalLoop=1;jettySize=auto;html=1;curved=0;dashed=1;" edge="1" parent="1">
          <mxGeometry x="0.0005" relative="1" as="geometry">
            <mxPoint x="580.87" y="929.9999999999999" as="sourcePoint" />
            <mxPoint x="210" y="930" as="targetPoint" />
            <Array as="points">
              <mxPoint x="321" y="930" />
              <mxPoint x="321" y="930" />
            </Array>
            <mxPoint as="offset" />
          </mxGeometry>
        </mxCell>
        <mxCell id="Dd6yMsaWtMQvo8j3xC_B-53" value="Платеж не &amp;nbsp;прошел" style="edgeStyle=orthogonalEdgeStyle;rounded=0;orthogonalLoop=1;jettySize=auto;html=1;curved=0;dashed=1;" edge="1" parent="1">
          <mxGeometry x="-0.0051" relative="1" as="geometry">
            <mxPoint x="209.87" y="959.9999999999999" as="sourcePoint" />
            <mxPoint x="30.000434782608743" y="959.9999999999999" as="targetPoint" />
            <mxPoint as="offset" />
          </mxGeometry>
        </mxCell>
      </root>
    </mxGraphModel>
  </diagram>
</mxfile>
